<?xml version="1.0"?>
<svg xmlns="http://www.w3.org/2000/svg" xmlns:xlink="http://www.w3.org/1999/xlink" xmlns:svgjs="http://svgjs.com/svgjs" version="1.1" width="512" height="512" x="0" y="0" viewBox="0 0 512.002 512.002" style="enable-background:new 0 0 512 512" xml:space="preserve" class=""><g>
<g xmlns="http://www.w3.org/2000/svg" id="SVGCleanerId_0">
	<g>
		<path d="M468.566,153.6c0.429,2.425,0.686,4.877,0.768,7.339V153.6H468.566z" fill="#ffffff" data-original="#000000" style="" class=""/>
	</g>
</g>
<g xmlns="http://www.w3.org/2000/svg">
	<g>
		<g>
			<rect x="51.201" y="443.733" width="34.133" height="17.067" fill="#ffffff" data-original="#000000" style="" class=""/>
			<rect x="51.201" y="375.467" width="34.133" height="17.067" fill="#ffffff" data-original="#000000" style="" class=""/>
			<rect x="51.201" y="307.2" width="34.133" height="17.067" fill="#ffffff" data-original="#000000" style="" class=""/>
			<rect x="136.534" y="307.2" width="34.133" height="17.067" fill="#ffffff" data-original="#000000" style="" class=""/>
			<rect x="221.868" y="307.2" width="34.133" height="17.067" fill="#ffffff" data-original="#000000" style="" class=""/>
			<path d="M51.201,256h204.8v-51.2h-204.8V256z M110.934,221.867h42.667c4.713,0,8.533,3.82,8.533,8.533s-3.821,8.533-8.533,8.533     h-42.667c-4.713,0-8.533-3.82-8.533-8.533S106.221,221.867,110.934,221.867z M70.742,224.341c0.83-0.753,1.782-1.359,2.816-1.792     c3.178-1.339,6.849-0.631,9.301,1.792l1.024,1.28c0.323,0.476,0.582,0.992,0.768,1.536c0.247,0.483,0.419,1.001,0.512,1.536     c0.099,0.564,0.156,1.134,0.171,1.707c-0.013,1.115-0.244,2.217-0.683,3.243c-0.433,1.034-1.039,1.986-1.792,2.816     c-1.636,1.558-3.799,2.442-6.059,2.475c-1.119,0.029-2.23-0.205-3.243-0.683c-1.034-0.433-1.986-1.039-2.816-1.792     c-0.771-0.816-1.38-1.772-1.792-2.816c-0.438-1.026-0.67-2.127-0.683-3.243C68.284,228.138,69.17,225.968,70.742,224.341z" fill="#ffffff" data-original="#000000" style="" class=""/>
			<path d="M486.401,153.6h-17.067v273.067c-0.022,28.268-22.932,51.178-51.2,51.2h-68.267c-28.268-0.022-51.178-22.932-51.2-51.2     V162.133c-0.006-2.862,0.251-5.718,0.768-8.533c4.127-24.634,25.454-42.678,50.432-42.667h68.267     c24.944,0.082,46.219,18.081,50.432,42.667h0.768V42.667C469.326,19.106,450.228,0.009,426.668,0H85.334     C61.774,0.009,42.676,19.106,42.668,42.667V153.6H25.601c-13.908-0.167-25.343,10.925-25.6,24.832v308.736     c0.257,13.907,11.692,24.999,25.6,24.832h460.8c13.908,0.167,25.343-10.925,25.6-24.832V178.432     C511.744,164.525,500.309,153.433,486.401,153.6z M85.334,34.133h341.333c4.713,0,8.533,3.82,8.533,8.533     s-3.82,8.533-8.533,8.533H85.334c-4.713,0-8.533-3.82-8.533-8.533S80.621,34.133,85.334,34.133z M85.334,76.8h341.333     c4.713,0,8.533,3.82,8.533,8.533s-3.82,8.533-8.533,8.533H85.334c-4.713,0-8.533-3.821-8.533-8.533S80.621,76.8,85.334,76.8z      M102.401,460.8c-0.028,9.414-7.653,17.039-17.067,17.067H51.201c-9.414-0.028-17.039-7.653-17.067-17.067v-17.067     c0.027-9.414,7.652-17.039,17.067-17.067h34.133c9.414,0.028,17.039,7.652,17.067,17.067V460.8z M102.401,392.533     c-0.028,9.414-7.653,17.039-17.067,17.067H51.201c-9.414-0.028-17.039-7.653-17.067-17.067v-17.067     c0.027-9.414,7.652-17.039,17.067-17.067h34.133c9.414,0.028,17.039,7.652,17.067,17.067V392.533z M102.401,324.267     c-0.028,9.414-7.653,17.039-17.067,17.067H51.201c-9.414-0.028-17.039-7.653-17.067-17.067V307.2     c0.027-9.414,7.652-17.039,17.067-17.067h34.133c9.414,0.027,17.039,7.652,17.067,17.067V324.267z M187.734,460.8     c-0.028,9.414-7.653,17.039-17.067,17.067h-34.133c-9.414-0.028-17.039-7.653-17.067-17.067v-17.067     c0.028-9.414,7.652-17.039,17.067-17.067h34.133c9.414,0.028,17.039,7.652,17.067,17.067V460.8z M187.734,392.533     c-0.028,9.414-7.653,17.039-17.067,17.067h-34.133c-9.414-0.028-17.039-7.653-17.067-17.067v-17.067     c0.028-9.414,7.652-17.039,17.067-17.067h34.133c9.414,0.028,17.039,7.652,17.067,17.067V392.533z M187.734,324.267     c-0.028,9.414-7.653,17.039-17.067,17.067h-34.133c-9.414-0.028-17.039-7.653-17.067-17.067V307.2     c0.028-9.414,7.652-17.039,17.067-17.067h34.133c9.414,0.027,17.039,7.652,17.067,17.067V324.267z M273.068,460.8     c-0.028,9.414-7.653,17.039-17.067,17.067h-34.133c-9.414-0.028-17.039-7.653-17.067-17.067v-17.067     c0.028-9.414,7.652-17.039,17.067-17.067h34.133c9.414,0.028,17.039,7.652,17.067,17.067V460.8z M273.068,392.533     c-0.028,9.414-7.653,17.039-17.067,17.067h-34.133c-9.414-0.028-17.039-7.653-17.067-17.067v-17.067     c0.028-9.414,7.652-17.039,17.067-17.067h34.133c9.414,0.028,17.039,7.652,17.067,17.067V392.533z M273.068,324.267     c-0.028,9.414-7.653,17.039-17.067,17.067h-34.133c-9.414-0.028-17.039-7.653-17.067-17.067V307.2     c0.028-9.414,7.652-17.039,17.067-17.067h34.133c9.414,0.027,17.039,7.652,17.067,17.067V324.267z M273.068,256     c-0.028,9.414-7.653,17.039-17.067,17.067h-204.8c-9.414-0.028-17.039-7.652-17.067-17.067v-51.2     c0.027-9.414,7.652-17.039,17.067-17.067h204.8c9.414,0.028,17.039,7.652,17.067,17.067V256z M273.068,136.533H85.334     c-4.713,0-8.533-3.82-8.533-8.533s3.82-8.533,8.533-8.533h187.733c4.713,0,8.533,3.82,8.533,8.533     S277.78,136.533,273.068,136.533z" fill="#ffffff" data-original="#000000" style="" class=""/>
			<rect x="136.534" y="375.467" width="34.133" height="17.067" fill="#ffffff" data-original="#000000" style="" class=""/>
			<rect x="136.534" y="443.733" width="34.133" height="17.067" fill="#ffffff" data-original="#000000" style="" class=""/>
			<rect x="221.868" y="375.467" width="34.133" height="17.067" fill="#ffffff" data-original="#000000" style="" class=""/>
			<rect x="221.868" y="443.733" width="34.133" height="17.067" fill="#ffffff" data-original="#000000" style="" class=""/>
		</g>
	</g>
</g>
<g xmlns="http://www.w3.org/2000/svg">
	<g>
		<path d="M418.154,128c-0.006,0-0.013,0-0.019,0h-68.267c-18.846-0.005-34.128,15.268-34.133,34.114c0,0.006,0,0.013,0,0.019    v264.533c-0.005,18.846,15.269,34.128,34.115,34.133c0.006,0,0.012,0,0.019,0h68.267c18.846,0.005,34.128-15.269,34.133-34.115    c0-0.006,0-0.012,0-0.019V162.133C452.273,143.287,437,128.005,418.154,128z" fill="#ffffff" data-original="#000000" style="" class=""/>
	</g>
</g>
<g xmlns="http://www.w3.org/2000/svg">
	<g>
		<path d="M468.566,153.6c0.429,2.425,0.686,4.877,0.768,7.339V153.6H468.566z" fill="#ffffff" data-original="#000000" style="" class=""/>
	</g>
</g>
<g xmlns="http://www.w3.org/2000/svg">
</g>
<g xmlns="http://www.w3.org/2000/svg">
</g>
<g xmlns="http://www.w3.org/2000/svg">
</g>
<g xmlns="http://www.w3.org/2000/svg">
</g>
<g xmlns="http://www.w3.org/2000/svg">
</g>
<g xmlns="http://www.w3.org/2000/svg">
</g>
<g xmlns="http://www.w3.org/2000/svg">
</g>
<g xmlns="http://www.w3.org/2000/svg">
</g>
<g xmlns="http://www.w3.org/2000/svg">
</g>
<g xmlns="http://www.w3.org/2000/svg">
</g>
<g xmlns="http://www.w3.org/2000/svg">
</g>
<g xmlns="http://www.w3.org/2000/svg">
</g>
<g xmlns="http://www.w3.org/2000/svg">
</g>
<g xmlns="http://www.w3.org/2000/svg">
</g>
<g xmlns="http://www.w3.org/2000/svg">
</g>
</g></svg>
