<?xml version="1.0"?>
<svg xmlns="http://www.w3.org/2000/svg" xmlns:xlink="http://www.w3.org/1999/xlink" xmlns:svgjs="http://svgjs.com/svgjs" version="1.1" width="512" height="512" x="0" y="0" viewBox="0 0 128 128" style="enable-background:new 0 0 512 512" xml:space="preserve" class=""><g><g xmlns="http://www.w3.org/2000/svg"><path d="M115.5,32.25a1.75,1.75,0,0,0,1.75-1.75V26.25h4.25a1.75,1.75,0,0,0,1.75-1.75v-9a1.75,1.75,0,0,0-1.75-1.75H78.148a15.62,15.62,0,0,0-28.3,0H6.5A1.75,1.75,0,0,0,4.75,15.5v9A1.75,1.75,0,0,0,6.5,26.25h4.25V30.5a1.75,1.75,0,0,0,1.75,1.75H27.66v27H23.41A1.75,1.75,0,0,0,21.66,61v39.06H12.5a4.255,4.255,0,0,1-4.25-4.25V82.664H12.5a1.75,1.75,0,0,0,1.75-1.75V71.1l2.119-1.518a1.75,1.75,0,0,0-2.037-2.846L5.48,73.077A1.753,1.753,0,0,0,4.75,74.5V95.81a7.759,7.759,0,0,0,7.75,7.75h9.16v4.19H18.91a1.75,1.75,0,0,0-1.75,1.75v4.25H6.5a1.75,1.75,0,0,0-1.75,1.75v6a1.75,1.75,0,0,0,1.75,1.75h115a1.75,1.75,0,0,0,1.75-1.75v-6a1.75,1.75,0,0,0-1.75-1.75H110.84V109.5a1.75,1.75,0,0,0-1.75-1.75h-2.75v-4.19h9.16a7.759,7.759,0,0,0,7.75-7.75V74.5a1.753,1.753,0,0,0-.73-1.423l-8.852-6.34a1.75,1.75,0,0,0-2.037,2.846L113.75,71.1v9.813a1.75,1.75,0,0,0,1.75,1.75h4.25V95.81a4.255,4.255,0,0,1-4.25,4.25h-9.16V61a1.75,1.75,0,0,0-1.75-1.75h-4.25v-27ZM10.75,73.608v5.556H8.25V75.4Zm106.5,5.556V73.608l2.5,1.79v3.766Zm-3.5-50.414H77.22a15.664,15.664,0,0,0,1.29-2.5h35.24ZM74.59,59.25A1.75,1.75,0,0,0,72.84,61v46.75H70.09a1.75,1.75,0,0,0-1.75,1.75v4.25H59.66V109.5a1.75,1.75,0,0,0-1.75-1.75H55.16V61a1.75,1.75,0,0,0-1.75-1.75H40.16v-27H53.8a15.573,15.573,0,0,0,20.406,0H87.84v27Zm45.16-42v5.5H79.458a15.022,15.022,0,0,0-.123-5.5ZM64,8.25A12.154,12.154,0,1,1,51.846,20.4,12.167,12.167,0,0,1,64,8.25Zm-55.75,9H48.665a15.022,15.022,0,0,0-.123,5.5H8.25Zm6,9H49.49a15.664,15.664,0,0,0,1.29,2.5H14.25Zm16.91,6h5.5v27h-5.5Zm-6,30.5h26.5v45H25.16Zm-4.5,48.5h35.5v2.5H20.66Zm99.09,8.5H8.25v-2.5h111.5Zm-12.41-6H71.84v-2.5h35.5Zm-4.5-6H76.34v-45h26.5Zm-6-48.5h-5.5v-27h5.5Z" fill="#ffffff" data-original="#000000" style="" class=""/><path d="M47.405,65.248h-18A1.75,1.75,0,0,0,27.655,67V79a1.75,1.75,0,0,0,1.75,1.75h18A1.749,1.749,0,0,0,49.155,79V67A1.749,1.749,0,0,0,47.405,65.248Zm-1.75,12h-14.5v-8.5h14.5Z" fill="#ffffff" data-original="#000000" style="" class=""/><path d="M47.405,89.248h-18a1.75,1.75,0,0,0,0,3.5h18a1.75,1.75,0,1,0,0-3.5Z" fill="#ffffff" data-original="#000000" style="" class=""/><path d="M78.845,67V79a1.749,1.749,0,0,0,1.75,1.75h18a1.75,1.75,0,0,0,1.75-1.75V67a1.75,1.75,0,0,0-1.75-1.75h-18A1.749,1.749,0,0,0,78.845,67Zm3.5,1.75h14.5v8.5h-14.5Z" fill="#ffffff" data-original="#000000" style="" class=""/><path d="M98.6,89.248h-18a1.75,1.75,0,0,0,0,3.5h18a1.75,1.75,0,0,0,0-3.5Z" fill="#ffffff" data-original="#000000" style="" class=""/><path d="M64,30.539a7.759,7.759,0,0,0,7.75-7.75c0-5.162-5.831-11.307-6.5-11.99a1.8,1.8,0,0,0-2.508,0c-.665.683-6.5,6.828-6.5,11.99A7.759,7.759,0,0,0,64,30.539Zm0-15.894c1.794,2.148,4.25,5.644,4.25,8.144a4.25,4.25,0,0,1-8.5,0C59.75,20.289,62.206,16.793,64,14.645Z" fill="#ffffff" data-original="#000000" style="" class=""/></g></g></svg>
